<svg width="412" height="412" viewBox="0 0 412 412" fill="none" xmlns="http://www.w3.org/2000/svg">
<path d="M178.509 257.897C181.933 253.047 188.367 251.597 194.115 253.083C198.044 254.099 202.164 254.64 206.411 254.64C210.613 254.64 214.691 254.11 218.583 253.114C224.32 251.646 230.731 253.102 234.146 257.94L311.47 367.487C315.388 373.037 313.937 380.761 308.038 384.131C277.957 401.317 243.126 411.14 206 411.14C169.068 411.14 134.407 401.419 104.433 384.399C98.516 381.039 97.052 373.3 100.976 367.741L178.509 257.897ZM149.855 194.054C154.647 195.68 157.411 200.581 157.411 205.64C157.411 215.732 160.463 225.109 165.693 232.903C168.982 237.804 169.74 244.31 166.336 249.133L88.6893 359.136C84.7728 364.684 77.0111 365.904 71.8587 361.479C27.8674 323.7 6.89312e-05 267.676 0 205.14C0 188.97 1.86324 173.235 5.38652 158.138C6.93234 151.515 13.9354 147.922 20.3761 150.108L149.855 194.054ZM391.684 150.367C398.13 148.179 405.139 151.781 406.677 158.412C410.159 173.426 412 189.068 412 205.14C412 267.481 384.307 323.352 340.553 361.127C335.404 365.573 327.624 364.36 323.701 358.802L246.39 249.274C242.977 244.439 243.747 237.915 247.058 233.009C252.331 225.195 255.411 215.778 255.411 205.64C255.411 200.581 258.174 195.681 262.965 194.055L391.684 150.367ZM213.911 11.7515C213.911 4.94648 219.578 -0.530961 226.35 0.133149C301.221 7.47495 364.331 54.8996 393.937 120.663C396.726 126.857 393.356 133.959 386.924 136.142L259.393 179.427C253.818 181.319 247.807 178.768 244.033 174.249C238.698 167.86 231.766 162.851 223.849 159.835C218.314 157.725 213.911 152.837 213.911 146.913V11.7515ZM198.911 146.913C198.911 152.837 194.509 157.725 188.973 159.834C181.057 162.85 174.124 167.86 168.788 174.249C165.014 178.767 159.003 181.318 153.429 179.426L25.1846 135.899C18.7468 133.714 15.3787 126.602 18.178 120.407C47.9475 54.5225 111.364 7.10001 186.518 0.0500376C193.274 -0.583797 198.911 4.88677 198.911 11.6732V146.913Z" fill="#00B8F6"/>
</svg>
