<svg width="337" height="96" viewBox="0 0 337 96" fill="none" xmlns="http://www.w3.org/2000/svg">
<path d="M252.75 0L325 1.21899e-06C331.627 1.33081e-06 337 5.37258 337 12L337 48L252.75 48L252.75 0Z" fill="#010101"/>
<rect x="168.5" width="84.25" height="48" fill="#FF68F3"/>
<rect x="84.25" width="84.25" height="48" fill="#F83E00"/>
<path d="M-9.55181e-07 12C-4.27649e-07 5.37258 5.37258 3.18203e-07 12 7.10726e-07L84.25 4.98989e-06L84.25 48L-3.82073e-06 48L-9.55181e-07 12Z" fill="#FFCF00"/>
<path d="M252.75 48L337 48L337 84C337 90.6274 331.627 96 325 96L252.75 96L252.75 48Z" fill="#F8ECD7"/>
<rect x="168.5" y="48" width="84.25" height="48" fill="#00F790"/>
<rect x="84.25" y="48" width="84.25" height="48" fill="#00A4F9"/>
<path d="M0 48L84.25 48L84.25 96L12 96C5.37258 96 -2.86918e-06 90.6274 -2.4231e-06 84L0 48Z" fill="#0059FF"/>
</svg>
